<svg width="700" height="700" viewBox="0 0 700 700" fill="none" xmlns="http://www.w3.org/2000/svg">
<rect x="150" y="47" width="75" height="262" fill="#BC2323"/>
<path fill-rule="evenodd" clip-rule="evenodd" d="M161.418 366.403C153.88 348.204 150 328.698 150 309H225C225 318.849 226.94 328.602 230.709 337.701C234.478 346.801 240.003 355.069 246.967 362.033C253.931 368.997 262.199 374.522 271.299 378.291C280.398 382.06 290.151 384 300 384V459C280.302 459 260.796 455.12 242.597 447.582C224.399 440.044 207.863 428.995 193.934 415.066C180.005 401.137 168.956 384.601 161.418 366.403Z" fill="#BC2323"/>
<path d="M300 334H375V653H300V334Z" fill="#BC2323"/>
<path d="M300 459V384H427V459H300Z" fill="#BC2323"/>
<path fill-rule="evenodd" clip-rule="evenodd" d="M550 334C550 403.036 494.036 459 425 459C355.964 459 300 403.036 300 334C300 264.964 355.964 209 425 209C494.036 209 550 264.964 550 334ZM475 334C475 361.614 452.614 384 425 384H375V334C375 306.386 397.386 284 425 284C452.614 284 475 306.386 475 334Z" fill="#BC2323"/>
</svg>
